<?xml version="1.0" encoding="utf-8" ?><svg xmlns="http://www.w3.org/2000/svg" xmlns:xlink="http://www.w3.org/1999/xlink" width="2055" height="2005" viewBox="1022 1038 2055 2005"><path fill="#A8A555" d="M2069.49 1465.02L2132.74 1464.47C2155.1 1503.7 2177.08 1555.09 2197.6 1596.62L2336.29 1875.54C2377.48 1956.05 2417.86 2036.98 2457.42 2118.3C2469.58 2143.07 2490.96 2179.12 2499.54 2203.78L2500.54 2206.7C2511.47 2200.62 2630.4 1951.22 2648.94 1917.75C2674.91 1870.87 2713.09 1781.74 2738.36 1730.7L2821.78 1565.48C2837.87 1533.63 2856.64 1498.26 2870.13 1465.59C2897.79 1467.8 3068.81 1461.18 3076.9 1468.72C3073.94 1480.86 3044.94 1504.91 3034.62 1515.37C3005.68 1544.72 3010.78 1585.79 3010.56 1625.05L3010.06 1720.09C3010.32 1860.36 3011.67 2000.63 3014.09 2140.89C2962.17 2124.55 2915.61 2123.23 2864 2138.61L2867.24 1636.92C2851.3 1662.59 2830.67 1705.48 2816.39 1733.12C2760.08 1842.14 2710.86 1954.72 2657.36 2065.26C2597.65 2192.2 2522.31 2322.36 2465.29 2449.99C2434.52 2381.2 2396.7 2310.79 2362.7 2243.02L2231.85 1979.2C2176.52 1869.94 2124.64 1758.01 2065.93 1650.82C2062.51 1690.44 2064.21 1745.14 2064.26 1785.94L2064.53 2008.32L2065.36 2251.19C2065.43 2298.5 2064.73 2346.05 2066.59 2393.56C2068.02 2429.98 2077.65 2476.01 2103.63 2503.47C2118.04 2518.7 2147.85 2524.69 2166.62 2533.41C2175.6 2537.58 2176.63 2549.88 2172.14 2557.38C2160.48 2558.85 2149.25 2558.48 2137.52 2558.31C2062.03 2557.26 1986.52 2557.61 1911.03 2557.15C1901.48 2557.09 1894.8 2555.16 1892.69 2545.42C1899.76 2530.55 1915.11 2531.12 1933.17 2522.65C1960.82 2509.39 1982.11 2485.74 1992.39 2456.85C2012.9 2399.17 2006.63 2326.08 2007.27 2264.85C2007.99 2146.98 2007.74 2029.1 2006.51 1911.24L2006.03 1725.43C2005.93 1676.52 2007.88 1613.38 1998.06 1565.4C1991.55 1533.6 1953.61 1507.73 1929.46 1488.81C1922.23 1483.15 1911.02 1479.75 1906.7 1470.87L1908.62 1467.81C1921.14 1471.54 2045.65 1465.54 2069.49 1465.02Z"/><path fill="#B5B361" d="M2921.65 1635.55C2931.28 1638.65 2934.15 1638.74 2936.85 1648.67C2926.07 1646.26 2925.17 1646.07 2921.65 1635.55Z"/><path fill="#A8A555" d="M1694.51 2579.73C1701.94 2582.84 1702.17 2614.9 1702.78 2624.03C1712.79 2793.79 1828.72 2951.37 2003.6 2975.27C2085.6 2986.48 2181.07 2965.46 2246.61 2913.19C2337.23 2840.92 2357.15 2757.28 2369.87 2647.6L2495.86 2647.75C2497.14 2709.44 2484.39 2760.93 2464.4 2818.54C2408.2 2962.84 2272.56 3025.32 2125.29 3042.2C1979.42 3058.92 1826.83 3036.66 1709.15 2942.76C1610.86 2864.32 1570.98 2749.64 1555.84 2628.19C1621.98 2622.13 1638.73 2612.51 1694.51 2579.73Z"/><path fill="#A8A555" d="M1478.72 2122.02C1417.81 2094.51 1357.46 2065.76 1297.71 2035.8C1200.38 1985.88 1080.17 1921.28 1047.01 1810.4C1025.88 1739.35 1028.45 1658.27 1062.45 1591.75C1154.12 1412.45 1426.86 1430.52 1579.3 1511.3C1591.89 1516.91 1596.46 1518.91 1608.02 1526.66C1608.38 1533.79 1583.33 1595 1578.77 1598.8C1558.17 1591.22 1534.82 1569.81 1514.22 1558.79C1443.81 1521.11 1354.39 1495.61 1275.36 1519.8C1233.43 1532.64 1197.27 1564.38 1177.24 1603.24C1157.37 1641.79 1152.3 1688.76 1166.02 1730.12C1200.77 1834.83 1388.18 1913.89 1482.21 1961.05C1480.13 2014.75 1479.76 2068.28 1478.72 2122.02Z"/><path fill="#B5B361" d="M1579.3 1511.3C1591.89 1516.91 1596.46 1518.91 1608.02 1526.66L1595.24 1526.75C1594.69 1532.98 1595.78 1530.12 1591.01 1535.2C1582.74 1535.72 1582.21 1535.92 1574.46 1533.5L1574.53 1530.47L1584.06 1521.38C1582.64 1516.01 1582.3 1516.06 1579.3 1511.3Z"/><path fill="#A8A555" d="M1728.03 2106.76C1731.36 2107.75 1732.07 2108.14 1734.91 2110.2C1776 2139.95 1806.73 2201.7 1813.88 2251.02C1824.13 2321.69 1810.12 2387.23 1767 2444.05C1698.79 2533.95 1613.87 2567.55 1505.1 2582.81C1473.22 2587.28 1447.21 2586.87 1415.4 2586.72C1385.15 2586.58 1354.02 2587.23 1324.13 2584.18C1229.01 2574.47 1101.48 2527.94 1023.9 2471.06C1024.24 2438.21 1024.17 2405.35 1023.7 2372.5C1022.91 2333.19 1021.35 2290.37 1022.71 2251.09C1022.95 2244.04 1025.46 2236.66 1031.36 2232.18C1033.85 2232.15 1039.09 2232.18 1039.92 2235.52C1058.9 2312.61 1093.76 2376.32 1152.53 2431.03C1234.08 2506.95 1345.4 2539.51 1455.71 2532.89C1543.36 2527.63 1624.86 2505.47 1683 2435.71C1692.61 2424.41 1706.01 2409.01 1710.71 2394.57C1734.62 2321.15 1730.4 2236.18 1732.16 2159.54C1732.57 2141.94 1728.9 2123.93 1728.03 2106.76Z"/><path fill="#B5B361" d="M1748.32 1104.69C1835.34 1044.07 1961.9 1035.5 2064.37 1038.58C2069.48 1049.59 2064.8 1047.62 2067.4 1054.83L2077.14 1050.91C2083.88 1053.8 2085.16 1056.74 2091.56 1061.13L2090.96 1064.71L2088.18 1066.17C2085.09 1064.18 2084.84 1064.25 2082.24 1061.72C2074.59 1068.16 2076.48 1064.3 2075.11 1073.04L2077.67 1080L2079.91 1080.87L2081.07 1078C2083.56 1078.37 2086.7 1078.83 2090.51 1079.39C2098.85 1075.38 2107.14 1064.23 2116.24 1068.37C2117.16 1076.12 2115.66 1079.86 2115.92 1087.08C2111.07 1089.8 2108.22 1090.44 2105.54 1094.68C2113.55 1105.34 2121.57 1097.17 2130.52 1113.33L2128.74 1115.93C2046.82 1094.6 1970.05 1097.59 1891.31 1128.59C1757.02 1194.01 1701.57 1335.91 1695.01 1478C1694.4 1491.31 1695.14 1502.95 1696.31 1516.2C1669.15 1504.74 1634.83 1483.65 1607.54 1470.01C1585.04 1458.78 1568.41 1451.93 1545.6 1441.98C1547.54 1416 1551.87 1390.26 1558.55 1365.09C1587.63 1252.51 1647.95 1164.35 1748.32 1104.69Z"/><path fill="#A8A555" d="M1748.32 1104.69C1835.34 1044.07 1961.9 1035.5 2064.37 1038.58C2069.48 1049.59 2064.8 1047.62 2067.4 1054.83L2077.14 1050.91C2083.88 1053.8 2085.16 1056.74 2091.56 1061.13L2090.96 1064.71L2088.18 1066.17C2085.09 1064.18 2084.84 1064.25 2082.24 1061.72C2074.59 1068.16 2076.48 1064.3 2075.11 1073.04L2077.67 1080L2079.91 1080.87L2081.07 1078C2083.56 1078.37 2086.7 1078.83 2090.51 1079.39C2098.85 1075.38 2107.14 1064.23 2116.24 1068.37C2117.16 1076.12 2115.66 1079.86 2115.92 1087.08C2111.07 1089.8 2108.22 1090.44 2105.54 1094.68C2113.55 1105.34 2121.57 1097.17 2130.52 1113.33L2128.74 1115.93C2046.82 1094.6 1970.05 1097.59 1891.31 1128.59L1889.62 1126C1892.06 1120.48 1907.21 1115.92 1913.75 1113.37C1912.2 1111.34 1907.33 1110.09 1904.38 1108.95L1907.57 1105.14L1905.6 1102.59C1897.57 1102.89 1899.74 1103.17 1891.95 1109.29C1886.78 1109.97 1883.2 1109.83 1879.16 1113.01L1878.76 1119.13L1874.77 1121.96C1867.68 1121.84 1869.83 1121.73 1862.94 1115.4C1857.49 1117.07 1857.23 1120.37 1853.23 1126.78L1856.12 1128.78C1854.43 1131.34 1851.03 1131.83 1847.45 1133.21C1842.53 1130.2 1844.72 1131.67 1841.53 1125.24C1834.87 1124.17 1837.71 1123.43 1832.56 1126.68C1836.56 1127.91 1837.51 1128.3 1841.27 1129.89L1840.71 1133.19C1835.09 1137.25 1835.14 1137.75 1828.08 1138.87C1814.97 1123.53 1815.86 1127.4 1796.98 1130.79L1795.23 1128.92L1798.82 1127.2C1799.39 1118.62 1798.59 1118.44 1792.06 1114.61C1784.89 1114.14 1772.24 1123.29 1761.42 1126.62L1759.73 1125.18C1762.71 1120.52 1761.94 1120.47 1762.73 1114.4C1767.93 1116.57 1765.27 1116.2 1771.02 1115.33C1771.01 1110.54 1770.73 1113 1771.99 1107.98C1780.97 1100.87 1786.63 1098.41 1796.72 1093.41C1787.43 1086.14 1767.84 1104.15 1748.32 1104.69Z"/><path fill="#B5B361" d="M2047.03 1089.03C2048.18 1089.01 2064.04 1092.26 2069.95 1092.55L2073.86 1096.95L2072.03 1095.78L2070.5 1097.82L2066.5 1097.4C2056.12 1097.19 2048 1097.14 2037.61 1095.89L2036.43 1093.48L2047.03 1089.03Z"/><path fill="#B5B361" d="M1837.04 1070.06C1838.69 1070.29 1840.29 1071.28 1841.94 1072.06C1840 1075.67 1823.46 1081.55 1816.76 1084.99C1813.62 1084.14 1815.44 1084.85 1811.58 1082.22C1814.84 1078.4 1831.05 1072.67 1837.04 1070.06Z"/><path fill="#B5B361" d="M1935.42 1102.21C1940.51 1101.77 1938.7 1101.41 1943.34 1103.53C1939.29 1106.78 1934.34 1107.58 1929.02 1109.22C1923.06 1109.5 1925.72 1110.35 1920.67 1107.7C1925.38 1103.32 1929.04 1103.38 1935.42 1102.21Z"/><path fill="#B5B361" d="M2002.94 1090.21C2010.29 1092.54 2015.13 1091.03 2023 1093.74L2021.59 1095.84C2015.12 1096.06 2003.18 1097.8 1999.16 1094.66L2002.94 1090.21Z"/><path fill="#A8A555" d="M1748.81 1164.77L1754.99 1164.49C1759.83 1167.16 1759.62 1167.34 1763.34 1171.56C1764.3 1179.09 1764.97 1175.57 1760.65 1182.35L1757.69 1182.94L1755.39 1180.13L1751.01 1187.68L1748.12 1188.07C1745.39 1182.8 1746.06 1179.06 1746.15 1173.11C1748.83 1168.87 1748.43 1169.61 1748.81 1164.77Z"/><path fill="#A8A555" d="M1682.04 1171.04C1689.79 1174.53 1696.75 1177.13 1699.46 1185.42L1697.06 1186.99C1692.17 1182.2 1687.65 1181.11 1681.08 1178.18L1682.04 1171.04Z"/><path fill="#A8A555" d="M1686.44 1228.15C1694.94 1228.94 1697.12 1228.6 1705.74 1227.65L1708.34 1230.13C1703.56 1233.23 1703.51 1233.27 1698.12 1235.09C1691.38 1233.83 1691.31 1232.9 1686.44 1228.15Z"/><path fill="#A8A555" d="M2916.65 2166.34C2985.6 2163.55 3052.22 2205.77 3061.12 2275.41C3071.11 2353.6 2983.66 2480.71 2937.77 2540.68L2933.51 2544.15C2911.19 2532.82 2809.85 2355.5 2802.09 2323.17C2794.41 2290.87 2800.03 2256.85 2817.69 2228.75C2841.55 2190.47 2874.74 2176.3 2916.65 2166.34Z"/><path fill="white" d="M2924.63 2223.29C2965.62 2219.28 3002.08 2249.3 3006.02 2290.29C3009.96 2331.28 2979.9 2367.7 2938.9 2371.58C2897.99 2375.46 2861.66 2345.46 2857.73 2304.56C2853.79 2263.65 2883.73 2227.28 2924.63 2223.29Z"/><path fill="#A8A555" d="M1623.95 1550.43L1629.13 1553.49C1645.59 1586.23 1662.95 1733.09 1663.95 1775.66C1664.39 1794.6 1656.88 1854.17 1654.61 1876.79C1699.72 1804.03 1775.86 1742.52 1851.95 1704.63C1809.07 1793.85 1758.11 1853.38 1677.17 1910.5C1702.89 1904.42 1840.49 1884.08 1850.38 1907.91C1844.62 1916.69 1829.47 1919.65 1820.01 1923.32C1768.28 1943.35 1714.9 1944.93 1660.38 1948.75C1681.88 1959.01 1738.27 1991.87 1746.92 2012.1C1736.14 2031.32 1647.23 1966.38 1633.99 1957.11C1633.51 1981.81 1636.58 2012.5 1635.35 2034.42C1630.33 2039.36 1631.49 2037.75 1622.4 2038.5C1619.27 2017.25 1620.12 1977.2 1622.13 1955.65C1607.86 1970.68 1592.75 1983.99 1573.82 1992.68C1561.61 1998.29 1521.57 2022.45 1510.23 2013.12C1512.58 1994.33 1568.5 1962.49 1585.15 1952.46C1534.98 1952.43 1492.16 1942.26 1445.91 1923.57C1437.36 1920.11 1410.96 1913.64 1410.8 1903.35C1451.54 1887.73 1540.79 1902.19 1583.73 1911.43C1500.26 1868.01 1447.84 1784.39 1404.09 1705.32C1479.78 1738.53 1561.51 1813.43 1603.91 1884.35C1580.58 1748.12 1587.95 1684.82 1623.95 1550.43Z"/><path fill="#B5B361" d="M2064.37 1038.58C2088.32 1040.44 2114.87 1040.95 2138.59 1045.53C2244.88 1066.07 2343.89 1101.53 2417.12 1185.5C2458.32 1232.73 2485.47 1296.09 2493.82 1357.82C2495.44 1369.73 2494.16 1407.62 2494.13 1421.66C2462.45 1425.79 2401.87 1424.1 2368.37 1424.06C2359.17 1268.31 2270.97 1171.76 2128.74 1115.93L2130.52 1113.33C2121.57 1097.17 2113.55 1105.34 2105.54 1094.68C2108.22 1090.44 2111.07 1089.8 2115.92 1087.08C2115.66 1079.86 2117.16 1076.12 2116.24 1068.37C2107.14 1064.23 2098.85 1075.38 2090.51 1079.39C2086.7 1078.83 2083.56 1078.37 2081.07 1078L2079.91 1080.87L2077.67 1080L2075.11 1073.04C2076.48 1064.3 2074.59 1068.16 2082.24 1061.72C2084.84 1064.25 2085.09 1064.18 2088.18 1066.17L2090.96 1064.71L2091.56 1061.13C2085.16 1056.74 2083.88 1053.8 2077.14 1050.91L2067.4 1054.83C2064.8 1047.62 2069.48 1049.59 2064.37 1038.58Z"/><path fill="#A8A555" d="M2132.64 1057.07C2138.69 1058.1 2141.74 1061.12 2146.84 1064.69L2147.18 1069.15C2139.16 1068.56 2137.07 1069.96 2132.6 1065.69L2132.64 1057.07Z"/><path fill="#A8A555" d="M1596.93 2010.01L1599.56 2011.12C1601.54 2024.14 1595.08 2034.87 1596.35 2048.9C1598.77 2052.82 1600.62 2056.71 1605.76 2057.69C1660.07 2068.05 1655.66 2060.35 1663.3 2014.29L1666.07 2012.99C1678.62 2024.74 1674.26 2047.33 1674.32 2064.48L1674.59 2156.25C1675.36 2216.03 1679.22 2275.96 1677.68 2335.79C1676.6 2378.02 1651.19 2400.31 1621.28 2427.05C1604.33 2442.73 1568.34 2462.06 1545.66 2468.46C1531.63 2327.38 1529.97 2180.43 1528.9 2038.49C1554.55 2027.69 1571.53 2024.36 1596.93 2010.01Z"/><path fill="#A8A555" d="M1661.13 1563.16C1684.66 1570.17 1736.85 1626.88 1755.84 1647.81C1748 1671.97 1737.41 1692.59 1725.41 1714.87C1721.3 1723.48 1713.97 1738.27 1706 1743.64L1701.73 1741.24C1698.05 1735.62 1697.33 1735 1696.56 1728.11C1693.56 1698.27 1688.42 1668.69 1681.17 1639.58C1676.9 1622.65 1661.13 1576.32 1661.13 1563.16Z"/></svg>